<svg id="svg" xmlns="http://www.w3.org/2000/svg" xmlns:xlink="http://www.w3.org/1999/xlink" width="400" height="408.8105726872247" viewBox="0, 0, 400,408.8105726872247"><g id="svgg"><path id="path0" d="M193.246 10.793 C 190.647 15.714,185.884 25.651,181.949 34.361 C 179.870 38.965,170.944 57.996,162.114 76.652 C 129.168 146.259,105.929 197.462,79.938 257.709 C 64.751 292.911,65.300 290.389,73.150 288.924 C 75.803 288.429,79.956 287.664,82.379 287.224 C 84.802 286.783,91.145 285.587,96.476 284.566 C 101.806 283.544,108.348 282.355,111.013 281.923 C 113.678 281.491,123.987 279.706,133.921 277.956 C 143.855 276.205,153.370 274.584,155.066 274.352 C 163.179 273.244,175.533 271.155,181.461 269.889 C 189.738 268.121,204.511 268.116,213.705 269.877 C 217.555 270.615,224.868 271.863,229.956 272.652 C 244.943 274.975,258.673 277.274,271.366 279.585 C 277.907 280.777,284.648 281.984,286.344 282.269 C 288.040 282.555,293.789 283.626,299.119 284.649 C 304.449 285.673,310.595 286.852,312.775 287.268 C 314.956 287.684,318.722 288.416,321.145 288.894 C 330.016 290.644,330.049 290.393,322.939 275.431 C 319.772 268.765,317.181 263.165,317.181 262.986 C 317.181 262.807,315.396 258.868,313.216 254.233 C 311.035 249.597,309.251 245.623,309.251 245.402 C 309.251 245.181,306.872 239.982,303.965 233.849 C 301.057 227.715,298.678 222.560,298.678 222.394 C 298.678 222.227,296.498 217.484,293.833 211.855 C 291.167 206.226,288.987 201.454,288.987 201.251 C 288.987 201.048,286.410 195.485,283.260 188.887 C 280.110 182.290,277.533 176.770,277.533 176.622 C 277.533 176.346,272.203 165.048,262.583 144.934 C 259.570 138.634,255.510 130.110,253.562 125.991 C 251.614 121.872,248.707 115.727,247.102 112.335 C 238.131 93.367,233.607 83.949,224.751 65.808 C 211.255 38.162,202.511 19.967,199.584 13.436 C 196.801 7.226,195.432 6.655,193.246 10.793 M209.275 94.714 C 249.249 174.387,252.516 182.237,247.697 187.056 C 244.594 190.159,243.436 188.263,222.923 146.503 C 197.138 94.009,198.908 97.357,196.941 97.357 C 195.323 97.357,189.395 108.102,181.387 125.551 C 178.015 132.898,164.533 160.774,156.886 176.211 C 149.329 191.466,146.932 193.370,144.029 186.422 C 142.277 182.229,142.768 181.017,164.757 135.242 C 168.249 127.974,173.401 117.070,176.205 111.013 C 179.010 104.956,182.774 96.828,184.569 92.952 C 189.945 81.345,191.252 80.042,197.213 80.355 L 202.203 80.617 209.275 94.714 M296.916 154.474 C 296.916 155.346,307.610 178.386,312.935 188.987 C 320.819 204.684,322.231 207.073,330.942 219.471 C 334.891 225.092,338.627 230.643,339.243 231.806 C 339.859 232.969,342.619 236.696,345.375 240.088 C 359.767 257.798,372.667 275.220,374.028 278.782 C 375.476 282.573,375.495 283.640,374.266 292.070 C 373.841 294.986,389.638 295.204,392.723 292.325 C 401.706 283.944,399.389 273.703,384.359 255.343 C 380.120 250.165,371.714 239.857,365.678 232.436 C 334.804 194.473,296.916 151.517,296.916 154.474 M90.933 162.269 C 72.288 183.107,46.335 214.901,16.430 253.542 C 0.489 274.140,-1.974 285.459,7.949 292.525 C 11.357 294.952,24.317 295.158,23.401 292.771 C 19.763 283.291,23.804 271.568,36.757 254.023 C 48.105 238.653,70.060 209.476,74.997 203.207 C 79.790 197.119,83.649 190.452,85.014 185.903 C 85.378 184.692,87.627 178.399,90.013 171.919 C 94.750 159.053,94.862 157.878,90.933 162.269 M188.546 287.154 C 180.186 288.296,153.887 292.625,150.661 293.390 C 148.965 293.793,141.828 294.963,134.802 295.991 C 127.775 297.019,120.044 298.241,117.621 298.707 C 115.198 299.173,112.256 299.654,111.082 299.777 C 106.837 300.221,108.623 302.142,126.910 316.810 C 137.133 325.009,154.827 339.251,166.231 348.458 C 194.321 371.137,196.573 372.838,197.863 372.343 C 198.821 371.976,224.776 351.094,237.004 340.853 C 241.177 337.359,262.911 319.532,276.555 308.414 C 287.196 299.742,287.617 300.135,263.436 296.170 C 257.379 295.177,251.035 294.127,249.339 293.838 C 243.447 292.834,237.385 291.907,226.872 290.402 C 221.057 289.570,215.110 288.533,213.656 288.097 C 209.869 286.962,194.250 286.375,188.546 287.154 M343.708 310.935 C 343.034 311.362,341.250 314.031,339.743 316.867 C 337.734 320.648,335.570 323.078,331.620 325.989 C 328.659 328.171,322.117 332.970,317.083 336.654 C 306.684 344.264,295.242 353.224,264.143 378.110 C 252.175 387.686,241.577 396.026,240.592 396.641 C 236.999 398.885,237.666 400.000,242.601 400.000 C 247.743 400.000,245.104 401.819,295.595 363.468 C 346.505 324.799,360.780 310.159,347.577 310.159 C 346.123 310.159,344.382 310.508,343.708 310.935 M43.653 312.996 C 46.285 321.684,52.835 327.802,92.072 358.216 C 143.804 398.315,149.236 402.003,153.982 400.247 C 156.468 399.328,156.138 398.946,145.815 390.808 C 140.969 386.988,135.183 382.367,132.956 380.540 C 129.137 377.407,104.919 358.160,89.427 345.948 C 85.551 342.892,78.859 337.845,74.558 334.733 C 62.460 325.980,57.653 321.226,55.396 315.780 L 53.420 311.013 48.237 311.013 C 43.271 311.013,43.078 311.096,43.653 312.996 " stroke="none" fill="#000000" fill-rule="evenodd"></path></g></svg>